<svg xmlns="http://www.w3.org/2000/svg" viewBox="0.209959 0.0929998 139.8 23.86">
	<path d="M27.425.583H43.69v4.753H33.344v4.1h9.553v4.8h-9.553v4.498h10.345v4.753H27.425zm36.536 15.471c0 1.818-1.002 2.82-3.914 2.82s-3.868-1.025-3.868-2.82V.583h-5.896v16.124c0 3.611 2.214 7.223 9.787 7.223 7.62 0 9.833-3.612 9.833-7.223V.583h-5.895v15.471zm40.124 7.433h5.896V.583h-5.896zm26.074-11.324v6.431a20 20 0 01-3.518.303c-3.03 0-3.612-1.048-3.612-3.006V7.992c0-2.12 1.025-2.82 3.519-2.82 2.423 0 5.08.257 7.875.653l.536-4.94c-2.912-.582-5.639-.792-8.295-.792-6.734 0-9.553 2.284-9.553 7.13v9.53c0 4.59 2.563 7.13 9.39 7.13 3.03 0 6.291-.396 9.087-1.188V12.117h-5.429zM3.8 8.435A3.595 3.595 0 00.21 12.047c0 1.98 1.608 3.611 3.59 3.611a3.595 3.595 0 003.587-3.611A3.595 3.595 0 003.799 8.435m0-8.295A3.595 3.595 0 00.21 3.75c0 1.981 1.607 3.612 3.588 3.612A3.595 3.595 0 007.386 3.75 3.595 3.595 0 003.798.14m0 16.59A3.595 3.595 0 00.21 20.342c0 1.98 1.607 3.611 3.588 3.611a3.595 3.595 0 003.588-3.611A3.595 3.595 0 003.798 16.73M21.833.583h-6.64L8.457 12.047l6.734 11.464h6.618l-6.944-11.464zM93.32 15.82l4.637 7.666H91.34l-3.682-6.477h-4.52v6.477h-5.895V.583h10.835c6.174 0 8.155 2.423 8.155 6.617v3.216c-.023 2.586-.722 4.1-2.913 5.405m-2.819-8.365c0-1.491-.7-2.12-2.47-2.12h-4.893v7.014h4.753c1.888 0 2.61-.7 2.61-2.237zm48-7.2c-.839 0-1.515.676-1.515 1.538 0 .839.676 1.538 1.515 1.538s1.515-.699 1.515-1.538A1.5 1.5 0 00138.5.256m0 2.866a1.333 1.333 0 01-1.328-1.351c0-.746.606-1.328 1.328-1.328s1.328.606 1.328 1.328c0 .746-.582 1.351-1.328 1.351m.093-1.141h-.35v.489h-.209V1.025h.56c.302 0 .442.14.442.373v.21c0 .163-.047.256-.21.326l.396.513h-.256zm0-.77h-.35v.583h.35c.163 0 .233-.07.233-.186v-.21c0-.14-.07-.186-.233-.186" fill="#000000"/>
</svg>