<?xml version="1.0" encoding="UTF-8"?>
<svg width="30px" height="29px" viewBox="0 0 30 29" version="1.1" xmlns="http://www.w3.org/2000/svg" xmlns:xlink="http://www.w3.org/1999/xlink">
    <title>F7CD4690-21AD-4CAB-B867-C6FE9184296E</title>
    <defs>
        <path d="M29.4954245,26.2054838 L22.0936647,18.8357662 C22.008834,18.7518629 21.9132592,18.6794664 21.809413,18.6204497 C25.3992507,13.4343041 24.2969531,6.35956079 19.2977414,2.50009154 C14.2985297,-1.35937771 7.14239781,-0.660270485 2.991933,4.09306225 C-1.15853182,8.84639498 -0.858745075,15.9995383 3.67502063,20.3920611 C8.20878634,24.7845838 15.3985372,24.8876523 20.0574326,20.6269107 C20.0916706,20.6711761 20.1286064,20.7133062 20.1680315,20.7530633 L27.5697913,28.1227808 C27.9137684,28.4652936 28.4151422,28.5990677 28.8850422,28.4737094 C29.3549421,28.3483512 29.7219756,27.9829066 29.8478788,27.5150409 C29.9737821,27.0471752 29.8394264,26.5479718 29.4954245,26.2054838 L29.4954245,26.2054838 Z M12.0093375,21.0441282 C6.93921402,21.0441282 2.82906685,16.9517739 2.82906685,11.903599 C2.82906685,6.85542413 6.93921402,2.76306981 12.0093375,2.76306981 C17.079461,2.76306981 21.1896082,6.85542413 21.1896082,11.903599 C21.1838586,16.9494036 17.0770738,21.0384079 12.009331,21.0441299 L12.0093375,21.0441282 Z" id="path-1"></path>
    </defs>
    <g id="Header" stroke="none" stroke-width="1" fill="none" fill-rule="evenodd">
        <g id="000_Defult" transform="translate(-1258.000000, -21.000000)">
            <g id="Icon/Utility/Search" transform="translate(1258.000000, 21.000000)">
                <mask id="mask-2" fill="#2F4053">
                    <use xlink:href="#path-1"></use>
                </mask>
                <use id="Mask" fill="#2F4053" fill-rule="nonzero" xlink:href="#path-1"></use>
                <g id="Color-/-Blue" mask="url(#mask-2)" fill="#333333">
                    <rect id="Rectangle-Copy-3" x="0" y="0" width="30" height="30"></rect>
                </g>
            </g>
        </g>
    </g>
</svg>