<?xml version="1.0" encoding="UTF-8"?>
<svg id="Layer_2" data-name="Layer 2" xmlns="http://www.w3.org/2000/svg" viewBox="0 0 1679.99 1396.65">
  <defs>
    <style>
      .cls-1 {
        fill: #fff;
        font-family: Tungsten-Semibold, Tungsten;
        font-size: 400px;
        font-weight: 600;
      }
    </style>
  </defs>
  <g id="Layer_1-2" data-name="Layer 1">
    <text class="cls-1" transform="translate(340 1209.36) rotate(-90)"><tspan x="0" y="0">G</tspan><tspan x="160.41" y="0">I</tspan><tspan x="239.61" y="0">L</tspan></text>
    <text class="cls-1" transform="translate(334.75 860.43) rotate(-83.76)"><tspan x="0" y="0">G</tspan></text>
    <text class="cls-1" transform="translate(351.39 717.76) rotate(-69.17)"><tspan x="0" y="0">E</tspan></text>
    <text class="cls-1" transform="translate(388.74 611.62) rotate(-54.53)"><tspan x="0" y="0">O</tspan></text>
    <text class="cls-1" transform="translate(470.74 494.72) rotate(-38.45)"><tspan x="0" y="0">U</tspan></text>
    <text class="cls-1" transform="translate(581.31 405.95) rotate(-22.6)"><tspan x="0" y="0">S</tspan></text>
    <text class="cls-1" transform="translate(711.17 354.87) rotate(-9.95)"><tspan x="0" y="0">-</tspan></text>
    <text class="cls-1" transform="translate(788.99 336.85) rotate(2.84)"><tspan x="0" y="0">A</tspan></text>
    <text class="cls-1" transform="translate(929.77 344.97) rotate(16.51)"><tspan x="0" y="0">L</tspan></text>
    <text class="cls-1" transform="translate(1030.91 373.92) rotate(29.1)"><tspan x="0" y="0">E</tspan></text>
    <text class="cls-1" transform="translate(1129.77 426.16) rotate(43.23)"><tspan x="0" y="0">X</tspan></text>
    <text class="cls-1" transform="translate(1226.9 514.89) rotate(58.26)"><tspan x="0" y="0">A</tspan></text>
    <text class="cls-1" transform="translate(1301.3 631.99) rotate(74.49)"><tspan x="0" y="0">N</tspan></text>
    <text class="cls-1" transform="translate(1338.72 773.92) rotate(89.03)"><tspan x="0" y="0">D</tspan></text>
    <text class="cls-1" transform="translate(1340 933.14) rotate(90)"><tspan x="0" y="0">E</tspan><tspan x="128.8" y="0">R</tspan></text>
  </g>
</svg>