<?xml version="1.0" encoding="UTF-8"?>
<svg id="Layer_2" xmlns="http://www.w3.org/2000/svg" viewBox="0 0 6040 2279.93">
  <defs>
    <style>
      .cls-1 {
        fill: #900;
      }
    </style>
  </defs>
  <g id="Logo">
    <g>
      <path class="cls-1" d="M1175.52,1196.02c-62.85,0-121.46-7.86-175.85-23.57-54.39-15.71-100.43-34.2-138.14-55.48l-50.04,50.76h-61.64l-9.43-372.01h62.36c14.02,35.37,31.91,72.67,53.66,111.92,21.75,39.25,46.88,74.37,75.42,105.39,29.48,32.46,62.48,58.86,98.98,79.21,36.5,20.35,79.16,30.53,127.99,30.53,65.74,0,116.14-16.08,151.2-48.26,35.05-32.18,52.57-72.7,52.57-121.58,0-40.16-14.87-73.9-44.6-101.24-29.73-27.33-75.78-50.95-138.14-70.87-40.61-13.1-77.95-25.23-112.04-36.41-34.08-11.17-66.12-22.58-96.08-34.24-69.14-27.59-120.5-67.04-154.1-118.35-33.61-51.31-50.4-108.66-50.4-172.08,0-40.18,8.7-78.78,26.11-115.81,17.4-37.03,42.78-70.31,76.14-99.83,31.91-27.58,72.75-50.09,122.55-67.52,49.79-17.43,103.93-26.14,162.44-26.14s110.46,7.98,160.26,23.93c49.79,15.95,88.94,31.91,117.47,47.86l44.24-43.51h63.09l5.8,350.98h-62.36c-14.5-37.8-31.54-76.44-51.12-115.94-19.58-39.5-40.25-72.32-62-98.5-23.69-28.1-51.01-50.51-81.94-67.24-30.94-16.71-67.2-25.08-108.77-25.08-52.21,0-94.88,14.78-127.99,44.31-33.12,29.54-49.67,66.09-49.67,109.67,0,41.16,14.38,74.82,43.15,100.97,28.76,26.15,73.6,49.15,134.52,69,35.77,12.1,72.27,24.2,109.5,36.3,37.22,12.1,70.34,23.73,99.35,34.85,70.09,27.11,123.39,64.52,159.9,112.19,36.49,47.68,54.75,106.86,54.75,177.53,0,44.54-10.4,87.63-31.18,129.26-20.79,41.63-48.84,76.24-84.12,103.83-38.68,30.5-83.39,53.98-134.15,70.43-50.76,16.45-109.99,24.69-177.67,24.69Z"/>
      <path class="cls-1" d="M2247.31,1196.02c-75.41,0-146-12.23-211.75-36.66-65.75-24.45-123.04-59.91-171.86-106.38-47.86-45.5-85.57-101.77-113.12-168.83-27.56-67.04-41.33-140.75-41.33-221.11s13.89-153.81,41.7-221.83c27.79-68.01,66.83-126.95,117.11-176.81,49.31-48.88,108.52-86.76,177.67-113.64,69.13-26.86,143.09-40.3,221.9-40.3,57.04,0,109.01,7.01,155.91,21.03,46.88,14.03,86.53,29.73,118.93,47.14l44.96-39.89h63.09l6.53,375.63h-63.81c-36.21-114.83-79.68-199.13-130.37-252.9-50.7-53.77-112.51-80.67-185.41-80.67-90.78,0-159.83,40.07-207.15,120.21-47.32,80.14-70.97,192.6-70.97,337.37,0,81.83,8.08,151.68,24.26,209.55,16.18,57.87,37.3,104.47,63.38,139.81,28.01,36.8,61.08,63.8,99.23,80.99,38.15,17.19,80.4,25.78,126.77,25.78,67.6,0,127.83-18.37,180.71-55.11,52.88-36.73,101.05-92.33,144.51-166.79l62.36,37.71c-20.79,42.55-44.48,80.62-71.06,114.21-26.59,33.61-57.29,62.49-92.1,86.66-38.2,26.59-80.38,47.39-126.54,62.37-46.17,14.98-100.68,22.48-163.52,22.48Z"/>
      <path class="cls-1" d="M3336.5,1167.74h-570.7v-56.56c13.05-.96,32.27-2.41,57.65-4.35,25.38-1.93,42.9-4.83,52.57-8.7,17.88-7.25,30.09-16.79,36.62-28.64,6.53-11.84,9.79-26.94,9.79-45.32V294.65c0-16.43-3.15-30.93-9.43-43.51-6.29-12.57-18.62-22.72-36.98-30.46-11.6-4.83-28.77-9.79-51.49-14.86-22.73-5.08-42.31-8.58-58.74-10.51v-56.56h570.7v56.56c-14.5,1.45-32.63,3.51-54.39,6.16-21.75,2.66-40.13,6.41-55.11,11.24-18.86,6.29-31.43,16.08-37.71,29.37-6.29,13.3-9.43,28.41-9.43,45.32v728.79c0,17.4,3.26,32.27,9.79,44.6,6.53,12.33,18.97,22.37,37.35,30.09,10.15,4.35,26.94,8.59,50.4,12.69,23.44,4.11,43.15,6.65,59.1,7.61v56.56Z"/>
      <path class="cls-1" d="M4396.69,396.17c0,58.01-11.97,107.94-35.9,149.74-23.93,41.82-56.93,75.78-98.98,101.89-43.51,27.08-93.18,46.66-149.02,58.74-55.84,12.09-118.57,18.13-188.18,18.13h-84.12v289.34c0,17.4,3.26,32.52,9.79,45.32,6.53,12.82,18.97,23.09,37.35,30.82,9.67,3.87,25.38,7.98,47.14,12.33,21.75,4.35,40.12,7.25,55.11,8.7v56.56h-557.65v-56.56c14.02-1.45,32.63-3.5,55.84-6.16,23.21-2.65,39.4-5.91,48.59-9.79,18.85-7.73,31.3-17.15,37.35-28.28,6.04-11.12,9.07-26.58,9.07-46.41V294.65c0-16.92-2.9-31.55-8.7-43.87-5.8-12.33-18.38-22.59-37.71-30.82-13.54-5.8-31.54-10.99-54.02-15.59-22.48-4.59-39.28-7.61-50.4-9.06v-56.56h567.8c132.94,0,232.29,21.15,298.04,63.45,65.74,42.31,98.62,106.96,98.62,193.98ZM4113.87,433.15c0-77.34-15.59-134.75-46.77-172.22-31.18-37.46-86.66-56.2-166.43-56.2h-60.19v451.77h30.46c79.28,0,139.59-18.24,180.93-54.75,41.33-36.49,62-92.69,62-168.6Z"/>
      <path class="cls-1" d="M4905.02,1196.02c-62.85,0-121.46-7.86-175.85-23.57-54.39-15.71-100.43-34.2-138.14-55.48l-50.04,50.76h-61.64l-9.43-372.01h62.36c14.02,35.37,31.91,72.67,53.66,111.92,21.75,39.25,46.88,74.37,75.42,105.39,29.48,32.46,62.48,58.86,98.98,79.21,36.5,20.35,79.16,30.53,127.99,30.53,65.74,0,116.14-16.08,151.2-48.26,35.05-32.18,52.57-72.7,52.57-121.58,0-40.16-14.87-73.9-44.6-101.24-29.73-27.33-75.78-50.95-138.14-70.87-40.61-13.1-77.95-25.23-112.04-36.41-34.08-11.17-66.12-22.58-96.08-34.24-69.14-27.59-120.5-67.04-154.1-118.35-33.61-51.31-50.4-108.66-50.4-172.08,0-40.18,8.7-78.78,26.11-115.81,17.4-37.03,42.78-70.31,76.14-99.83,31.91-27.58,72.75-50.09,122.55-67.52,49.79-17.43,103.93-26.14,162.44-26.14s110.46,7.98,160.26,23.93c49.79,15.95,88.94,31.91,117.47,47.86l44.24-43.51h63.09l5.8,350.98h-62.36c-14.5-37.8-31.54-76.44-51.12-115.94-19.58-39.5-40.25-72.32-62-98.5-23.69-28.1-51.01-50.51-81.94-67.24-30.94-16.71-67.2-25.08-108.77-25.08-52.21,0-94.88,14.78-127.99,44.31-33.12,29.54-49.67,66.09-49.67,109.67,0,41.16,14.38,74.82,43.15,100.97,28.76,26.15,73.6,49.15,134.52,69,35.77,12.1,72.27,24.2,109.5,36.3,37.22,12.1,70.34,23.73,99.35,34.85,70.09,27.11,123.39,64.52,159.9,112.19,36.49,47.68,54.75,106.86,54.75,177.53,0,44.54-10.4,87.63-31.18,129.26-20.79,41.63-48.84,76.24-84.12,103.83-38.68,30.5-83.39,53.98-134.15,70.43s-109.99,24.69-177.67,24.69Z"/>
    </g>
    <path d="M5366.3,0c-511.26,0-1033.64,110.46-1033.64,110.46,831.82-105.19,1406.45-21.11,1406.45,320.16,0,121.13-122.91,264.58-335.13,415.05.35,7.29.54,14.67.54,22.15,0,55.64-13.05,110.01-38.8,161.58-25.53,51.11-60.59,94.33-104.21,128.46-45.23,35.64-97.88,63.33-156.51,82.33-57.77,18.72-125.05,28.21-199.98,28.21-69.32,0-135.24-8.88-195.93-26.41-6.97-2.01-13.83-4.08-20.59-6.19-944.09,420.31-2356.39,794.32-3516.97,794.32-787.4,0-860.92-159.8-860.92-310.65,5.74-319.93,439.24-551.74,439.24-551.74C178.61,1389,0,1700.52,0,1877.32s184.9,402.61,1059.44,402.61c2671.06,0,4980.56-1211.64,4980.56-1859.23,0-348.23-375-420.7-673.7-420.7Z"/>
  </g>
</svg>