<?xml version="1.0" encoding="UTF-8"?>
<svg id="Layer_2" data-name="Layer 2" xmlns="http://www.w3.org/2000/svg" viewBox="0 0 1500 800">
  <defs>
    <style>
      .cls-1 {
        fill: #fff;
      }
    </style>
  </defs>
  <g id="Layer_2-2" data-name="Layer 2">
    <g>
      <path class="cls-1" d="M250,133.33c-64.43,0-116.67,52.23-116.67,116.67h0c0,64.43,52.23,116.67,116.67,116.67h300c101.25,0,183.33,82.08,183.33,183.33h0c0,101.25-82.08,183.33-183.33,183.33H0v66.67h550c138.07,0,250-111.93,250-250h0c0-138.07-111.93-250-250-250H250c-27.61,0-50-22.39-50-50h0c0-27.61,22.39-50,50-50h650v600h66.67V133.33H250Z"/>
      <path class="cls-1" d="M1033.33,466.67h0v333.33h66.67v-258.27c115.01,29.6,200,134.01,200,258.26h0s66.67,0,66.67,0h0c0-184.1-149.24-333.33-333.33-333.33Z"/>
      <path class="cls-1" d="M1433.33,0v559.51c-18.84-31.27-41.26-60.14-66.67-86.06V0h-66.67v417c-58.34-40.69-126.39-68.41-200-78.94V0H250C111.93,0,0,111.93,0,250h0c0,138.07,111.93,250,250,250h300c27.61,0,50,22.39,50,50s-22.39,50-50,50H0v66.67h550c64.43,0,116.67-52.23,116.67-116.67h0c0-64.43-52.23-116.67-116.67-116.67H250c-101.25,0-183.33-82.08-183.33-183.33h0c0-101.25,82.08-183.33,183.33-183.33h783.33v333.33h0c220.91,0,400,179.09,400,400h0s66.67,0,66.67,0h0V0h-66.67Z"/>
    </g>
  </g>
</svg>