<?xml version="1.0" encoding="UTF-8"?>
<svg id="Layer_2" xmlns="http://www.w3.org/2000/svg" xmlns:xlink="http://www.w3.org/1999/xlink" viewBox="0 0 1921 639.03">
  <defs>
    <style>
      .cls-1 {
        fill: url(#linear-gradient);
      }

      .cls-1, .cls-2, .cls-3, .cls-4, .cls-5, .cls-6, .cls-7, .cls-8, .cls-9, .cls-10, .cls-11, .cls-12, .cls-13, .cls-14, .cls-15, .cls-16, .cls-17, .cls-18, .cls-19, .cls-20, .cls-21, .cls-22, .cls-23, .cls-24, .cls-25, .cls-26, .cls-27, .cls-28, .cls-29, .cls-30, .cls-31, .cls-32, .cls-33, .cls-34, .cls-35, .cls-36, .cls-37 {
        stroke: #000;
        stroke-miterlimit: 10;
      }

      .cls-2 {
        fill: url(#linear-gradient-5);
      }

      .cls-3, .cls-15, .cls-35 {
        fill: none;
      }

      .cls-4 {
        fill: url(#linear-gradient-9);
      }

      .cls-5 {
        fill: url(#linear-gradient-26);
      }

      .cls-6 {
        fill: #222;
      }

      .cls-7 {
        fill: url(#linear-gradient-28);
      }

      .cls-8 {
        fill: url(#linear-gradient-15);
      }

      .cls-9 {
        fill: url(#linear-gradient-23);
      }

      .cls-10 {
        fill: url(#linear-gradient-21);
      }

      .cls-11 {
        fill: url(#linear-gradient-11);
      }

      .cls-13 {
        fill: url(#linear-gradient-25);
      }

      .cls-13, .cls-15 {
        stroke-width: 2px;
      }

      .cls-14 {
        fill: url(#linear-gradient-6);
      }

      .cls-16 {
        fill: url(#linear-gradient-19);
      }

      .cls-17 {
        fill: url(#linear-gradient-10);
      }

      .cls-18 {
        fill: url(#linear-gradient-20);
      }

      .cls-19 {
        fill: url(#linear-gradient-29);
      }

      .cls-20 {
        fill: url(#linear-gradient-24);
      }

      .cls-21 {
        fill: url(#linear-gradient-12);
      }

      .cls-22 {
        fill: url(#linear-gradient-31);
      }

      .cls-23 {
        fill: url(#linear-gradient-30);
      }

      .cls-24 {
        fill: url(#linear-gradient-4);
      }

      .cls-25 {
        fill: url(#linear-gradient-3);
      }

      .cls-26 {
        fill: url(#linear-gradient-22);
      }

      .cls-27 {
        fill: url(#linear-gradient-18);
      }

      .cls-28 {
        fill: url(#linear-gradient-7);
      }

      .cls-29 {
        fill: url(#linear-gradient-8);
      }

      .cls-30 {
        fill: url(#linear-gradient-13);
      }

      .cls-31 {
        fill: url(#linear-gradient-2);
      }

      .cls-32 {
        fill: url(#linear-gradient-16);
      }

      .cls-33 {
        fill: url(#linear-gradient-32);
      }

      .cls-34 {
        fill: url(#linear-gradient-27);
      }

      .cls-35 {
        stroke-width: 3px;
      }

      .cls-36 {
        fill: url(#linear-gradient-14);
      }

      .cls-37 {
        fill: url(#linear-gradient-17);
      }
    </style>
    <linearGradient id="linear-gradient" x1="1133" y1="326" x2="1508" y2="326" gradientUnits="userSpaceOnUse">
      <stop offset="0" stop-color="#000" stop-opacity=".25"/>
      <stop offset="1" stop-color="#000" stop-opacity=".25"/>
    </linearGradient>
    <linearGradient id="linear-gradient-2" x1="1095.5" y1="351" x2="1470.5" y2="351" xlink:href="#linear-gradient"/>
    <linearGradient id="linear-gradient-3" x1="1208" y1="276" x2="1583" y2="276" xlink:href="#linear-gradient"/>
    <linearGradient id="linear-gradient-4" x1="1170.5" y1="301" x2="1545.5" y2="301" xlink:href="#linear-gradient"/>
    <linearGradient id="linear-gradient-5" x1="1283" y1="226" x2="1658" y2="226" xlink:href="#linear-gradient"/>
    <linearGradient id="linear-gradient-6" x1="1245.5" y1="251" x2="1620.5" y2="251" xlink:href="#linear-gradient"/>
    <linearGradient id="linear-gradient-7" x1="1358" y1="176" x2="1733" y2="176" xlink:href="#linear-gradient"/>
    <linearGradient id="linear-gradient-8" x1="1320.5" y1="201" x2="1695.5" y2="201" xlink:href="#linear-gradient"/>
    <linearGradient id="linear-gradient-9" x1="1433" y1="126" x2="1808" y2="126" xlink:href="#linear-gradient"/>
    <linearGradient id="linear-gradient-10" x1="1470.5" y1="101" x2="1845.5" y2="101" xlink:href="#linear-gradient"/>
    <linearGradient id="linear-gradient-11" x1="1395.5" y1="151" x2="1770.5" y2="151" xlink:href="#linear-gradient"/>
    <linearGradient id="linear-gradient-12" x1="495.5" y1="601" x2="870.5" y2="601" xlink:href="#linear-gradient"/>
    <linearGradient id="linear-gradient-13" x1="458" y1="626" x2="833" y2="626" xlink:href="#linear-gradient"/>
    <linearGradient id="linear-gradient-14" x1="570.5" y1="551" x2="945.5" y2="551" xlink:href="#linear-gradient"/>
    <linearGradient id="linear-gradient-15" x1="533" y1="576" x2="908" y2="576" xlink:href="#linear-gradient"/>
    <linearGradient id="linear-gradient-16" x1="645.5" y1="501" x2="1020.5" y2="501" xlink:href="#linear-gradient"/>
    <linearGradient id="linear-gradient-17" x1="608" y1="526" x2="983" y2="526" xlink:href="#linear-gradient"/>
    <linearGradient id="linear-gradient-18" x1="720.5" y1="451" x2="1095.5" y2="451" xlink:href="#linear-gradient"/>
    <linearGradient id="linear-gradient-19" x1="683" y1="476" x2="1058" y2="476" xlink:href="#linear-gradient"/>
    <linearGradient id="linear-gradient-20" x1="795.5" y1="401" x2="1170.5" y2="401" xlink:href="#linear-gradient"/>
    <linearGradient id="linear-gradient-21" x1="833" y1="376" x2="1208" y2="376" xlink:href="#linear-gradient"/>
    <linearGradient id="linear-gradient-22" x1="758" y1="426" x2="1133" y2="426" xlink:href="#linear-gradient"/>
    <linearGradient id="linear-gradient-23" x1="458" y1="351" x2="495.5" y2="351" gradientUnits="userSpaceOnUse">
      <stop offset="0" stop-color="#000" stop-opacity=".5"/>
      <stop offset="1" stop-color="#000" stop-opacity=".5"/>
    </linearGradient>
    <linearGradient id="linear-gradient-24" x1=".5" y1="363.5" x2="38" y2="363.5" xlink:href="#linear-gradient-23"/>
    <linearGradient id="linear-gradient-25" x1="1445.5" y1="44.75" x2="1470.5" y2="44.75" xlink:href="#linear-gradient-23"/>
    <linearGradient id="linear-gradient-26" x1="300.5" y1="563.5" x2="400.5" y2="563.5" xlink:href="#linear-gradient"/>
    <linearGradient id="linear-gradient-27" x1="350.5" y1="563.5" x2="361.25" y2="563.5" xlink:href="#linear-gradient"/>
    <linearGradient id="linear-gradient-28" x1="401.25" y1="563.5" x2="409.75" y2="563.5" gradientTransform="translate(-88.5 1127) scale(1 -1)" xlink:href="#linear-gradient"/>
    <linearGradient id="linear-gradient-29" x1="417.5" y1="563.5" x2="422" y2="563.5" gradientTransform="translate(-117 1127) scale(1 -1)" xlink:href="#linear-gradient"/>
    <linearGradient id="linear-gradient-30" x1="382" y1="563.5" x2="392" y2="563.5" gradientTransform="translate(-51.5 1127) scale(1 -1)" xlink:href="#linear-gradient"/>
    <linearGradient id="linear-gradient-31" x1="371.25" y1="563.5" x2="380.5" y2="563.5" xlink:href="#linear-gradient"/>
    <linearGradient id="linear-gradient-32" x1="389" y1="563.5" x2="396.75" y2="563.5" xlink:href="#linear-gradient"/>
  </defs>
  <g id="Layer_1-2" data-name="Layer_1">
    <rect class="cls-3" x="1845.5" y="88.5" width="75" height="25"/>
    <rect class="cls-3" x="1845.5" y="138.5" width="75" height="25"/>
    <rect class="cls-3" x="1808" y="163.5" width="75" height="25"/>
    <rect class="cls-3" x="1808" y="113.5" width="75" height="25"/>
    <rect class="cls-3" x="1770.5" y="138.5" width="75" height="25"/>
    <rect class="cls-3" x="1733" y="163.5" width="75" height="25"/>
    <rect class="cls-3" x="1845.5" y="188.5" width="75" height="25"/>
    <rect class="cls-3" x="1770.5" y="188.5" width="75" height="25"/>
    <rect class="cls-3" x="1695.5" y="188.5" width="75" height="25"/>
    <rect class="cls-3" x="1845.5" y="238.5" width="75" height="25"/>
    <rect class="cls-3" x="1770.5" y="238.5" width="75" height="25"/>
    <rect class="cls-3" x="1695.5" y="238.5" width="75" height="25"/>
    <rect class="cls-3" x="1808" y="263.5" width="75" height="25"/>
    <rect class="cls-3" x="1808" y="313.5" width="75" height="25"/>
    <rect class="cls-3" x="1733" y="263.5" width="75" height="25"/>
    <rect class="cls-3" x="1658" y="263.5" width="75" height="25"/>
    <rect class="cls-3" x="1770.5" y="288.5" width="75" height="25"/>
    <rect class="cls-3" x="1845.5" y="288.5" width="75" height="25"/>
    <rect class="cls-3" x="1770.5" y="338.5" width="75" height="25"/>
    <rect class="cls-3" x="1845.5" y="338.5" width="75" height="25"/>
    <rect class="cls-3" x="1695.5" y="288.5" width="75" height="25"/>
    <rect class="cls-3" x="1620.5" y="288.5" width="75" height="25"/>
    <rect class="cls-3" x="1733" y="313.5" width="75" height="25"/>
    <rect class="cls-3" x="1658" y="313.5" width="75" height="25"/>
    <rect class="cls-3" x="1583" y="313.5" width="75" height="25"/>
    <rect class="cls-3" x="1695.5" y="338.5" width="75" height="25"/>
    <rect class="cls-3" x="1620.5" y="338.5" width="75" height="25"/>
    <rect class="cls-3" x="1545.5" y="338.5" width="75" height="25"/>
    <rect class="cls-3" x="1658" y="213.5" width="75" height="25"/>
    <rect class="cls-3" x="1620.5" y="238.5" width="75" height="25"/>
    <rect class="cls-3" x="1583" y="263.5" width="75" height="25"/>
    <rect class="cls-3" x="1545.5" y="288.5" width="75" height="25"/>
    <rect class="cls-3" x="1508" y="313.5" width="75" height="25"/>
    <rect class="cls-3" x="1470.5" y="338.5" width="75" height="25"/>
    <rect class="cls-1" x="1133" y="313.5" width="375" height="25"/>
    <rect class="cls-31" x="1095.5" y="338.5" width="375" height="25"/>
    <rect class="cls-25" x="1208" y="263.5" width="375" height="25"/>
    <rect class="cls-24" x="1170.5" y="288.5" width="375" height="25"/>
    <rect class="cls-2" x="1283" y="213.5" width="375" height="25"/>
    <rect class="cls-14" x="1245.5" y="238.5" width="375" height="25"/>
    <rect class="cls-28" x="1358" y="163.5" width="375" height="25"/>
    <rect class="cls-29" x="1320.5" y="188.5" width="375" height="25"/>
    <rect class="cls-4" x="1433" y="113.5" width="375" height="25"/>
    <rect class="cls-17" x="1470.5" y="88.5" width="375" height="25"/>
    <rect class="cls-11" x="1395.5" y="138.5" width="375" height="25"/>
    <rect class="cls-21" x="495.5" y="588.5" width="375" height="25"/>
    <rect class="cls-30" x="458" y="613.5" width="375" height="25"/>
    <rect class="cls-36" x="570.5" y="538.5" width="375" height="25"/>
    <rect class="cls-8" x="533" y="563.5" width="375" height="25"/>
    <rect class="cls-32" x="645.5" y="488.5" width="375" height="25"/>
    <rect class="cls-37" x="608" y="513.5" width="375" height="25"/>
    <rect class="cls-27" x="720.5" y="438.5" width="375" height="25"/>
    <rect class="cls-16" x="683" y="463.5" width="375" height="25"/>
    <rect class="cls-18" x="795.5" y="388.5" width="375" height="25"/>
    <rect class="cls-10" x="833" y="363.5" width="375" height="25"/>
    <rect class="cls-26" x="758" y="413.5" width="375" height="25"/>
    <rect class="cls-3" x="1883" y="113.5" width="37.5" height="25"/>
    <rect class="cls-3" x="1883" y="313.5" width="37.5" height="25"/>
    <rect class="cls-3" x="1883" y="163.5" width="37.5" height="25"/>
    <rect class="cls-3" x="1808" y="213.5" width="75" height="25"/>
    <rect class="cls-3" x="1733" y="213.5" width="75" height="25"/>
    <rect class="cls-3" x="1883" y="213.5" width="37.5" height="25"/>
    <rect class="cls-3" x="1883" y="263.5" width="37.5" height="25"/>
    <rect class="cls-3" x="1208" y="363.5" width="75" height="25"/>
    <rect class="cls-3" x="1283" y="363.5" width="75" height="25"/>
    <rect class="cls-3" x="1208" y="413.5" width="75" height="25"/>
    <rect class="cls-3" x="1170.5" y="438.5" width="75" height="25"/>
    <rect class="cls-3" x="1170.5" y="388.5" width="75" height="25"/>
    <rect class="cls-3" x="1133" y="413.5" width="75" height="25"/>
    <rect class="cls-3" x="1095.5" y="438.5" width="75" height="25"/>
    <rect class="cls-3" x="1208" y="463.5" width="75" height="25"/>
    <rect class="cls-3" x="1133" y="463.5" width="75" height="25"/>
    <rect class="cls-3" x="1058" y="463.5" width="75" height="25"/>
    <rect class="cls-3" x="1208" y="513.5" width="75" height="25"/>
    <rect class="cls-3" x="1133" y="513.5" width="75" height="25"/>
    <rect class="cls-3" x="1058" y="513.5" width="75" height="25"/>
    <rect class="cls-3" x="1170.5" y="538.5" width="75" height="25"/>
    <rect class="cls-3" x="1170.5" y="588.5" width="75" height="25"/>
    <rect class="cls-3" x="1095.5" y="538.5" width="75" height="25"/>
    <rect class="cls-3" x="1020.5" y="538.5" width="75" height="25"/>
    <rect class="cls-3" x="1133" y="563.5" width="75" height="25"/>
    <rect class="cls-3" x="1208" y="563.5" width="75" height="25"/>
    <rect class="cls-3" x="1133" y="613.5" width="75" height="25"/>
    <rect class="cls-3" x="1208" y="613.5" width="75" height="25"/>
    <rect class="cls-3" x="1058" y="563.5" width="75" height="25"/>
    <rect class="cls-3" x="983" y="563.5" width="75" height="25"/>
    <rect class="cls-3" x="1095.5" y="588.5" width="75" height="25"/>
    <rect class="cls-3" x="1020.5" y="588.5" width="75" height="25"/>
    <rect class="cls-3" x="945.5" y="588.5" width="75" height="25"/>
    <rect class="cls-3" x="1058" y="613.5" width="75" height="25"/>
    <rect class="cls-3" x="983" y="613.5" width="75" height="25"/>
    <rect class="cls-3" x="908" y="613.5" width="75" height="25"/>
    <rect class="cls-3" x="1020.5" y="488.5" width="75" height="25"/>
    <rect class="cls-3" x="983" y="513.5" width="75" height="25"/>
    <rect class="cls-3" x="945.5" y="538.5" width="75" height="25"/>
    <rect class="cls-3" x="908" y="563.5" width="75" height="25"/>
    <rect class="cls-3" x="870.5" y="588.5" width="75" height="25"/>
    <rect class="cls-3" x="833" y="613.5" width="75" height="25"/>
    <rect class="cls-3" x="1170.5" y="488.5" width="75" height="25"/>
    <rect class="cls-3" x="1095.5" y="488.5" width="75" height="25"/>
    <rect class="cls-3" x="1845.5" y="388.5" width="75" height="25"/>
    <rect class="cls-3" x="1808" y="413.5" width="75" height="25"/>
    <rect class="cls-3" x="1808" y="363.5" width="75" height="25"/>
    <rect class="cls-3" x="1770.5" y="388.5" width="75" height="25"/>
    <rect class="cls-3" x="1733" y="413.5" width="75" height="25"/>
    <rect class="cls-3" x="1845.5" y="438.5" width="75" height="25"/>
    <rect class="cls-3" x="1770.5" y="438.5" width="75" height="25"/>
    <rect class="cls-3" x="1695.5" y="438.5" width="75" height="25"/>
    <rect class="cls-3" x="1845.5" y="488.5" width="75" height="25"/>
    <rect class="cls-3" x="1770.5" y="488.5" width="75" height="25"/>
    <rect class="cls-3" x="1695.5" y="488.5" width="75" height="25"/>
    <rect class="cls-3" x="1808" y="513.5" width="75" height="25"/>
    <rect class="cls-3" x="1808" y="563.5" width="75" height="25"/>
    <rect class="cls-3" x="1733" y="513.5" width="75" height="25"/>
    <rect class="cls-3" x="1658" y="513.5" width="75" height="25"/>
    <rect class="cls-3" x="1770.5" y="538.5" width="75" height="25"/>
    <rect class="cls-3" x="1845.5" y="538.5" width="75" height="25"/>
    <rect class="cls-3" x="1770.5" y="588.5" width="75" height="25"/>
    <rect class="cls-3" x="1845.5" y="588.5" width="75" height="25"/>
    <rect class="cls-3" x="1695.5" y="538.5" width="75" height="25"/>
    <rect class="cls-3" x="1620.5" y="538.5" width="75" height="25"/>
    <rect class="cls-3" x="1733" y="563.5" width="75" height="25"/>
    <rect class="cls-3" x="1658" y="563.5" width="75" height="25"/>
    <rect class="cls-3" x="1583" y="563.5" width="75" height="25"/>
    <rect class="cls-3" x="1695.5" y="588.5" width="75" height="25"/>
    <rect class="cls-3" x="1620.5" y="588.5" width="75" height="25"/>
    <rect class="cls-3" x="1545.5" y="588.5" width="75" height="25"/>
    <rect class="cls-3" x="1658" y="463.5" width="75" height="25"/>
    <rect class="cls-3" x="1620.5" y="488.5" width="75" height="25"/>
    <rect class="cls-3" x="1583" y="513.5" width="75" height="25"/>
    <rect class="cls-3" x="1733" y="363.5" width="75" height="25"/>
    <rect class="cls-3" x="1658" y="363.5" width="75" height="25"/>
    <rect class="cls-3" x="1583" y="363.5" width="75" height="25"/>
    <rect class="cls-3" x="1508" y="363.5" width="75" height="25"/>
    <rect class="cls-3" x="1433" y="363.5" width="75" height="25"/>
    <rect class="cls-3" x="1358" y="363.5" width="75" height="25"/>
    <rect class="cls-3" x="1283" y="413.5" width="75" height="25"/>
    <rect class="cls-3" x="1583" y="413.5" width="75" height="25"/>
    <rect class="cls-3" x="1658" y="413.5" width="75" height="25"/>
    <rect class="cls-3" x="1508" y="413.5" width="75" height="25"/>
    <rect class="cls-3" x="1433" y="413.5" width="75" height="25"/>
    <rect class="cls-3" x="1358" y="413.5" width="75" height="25"/>
    <rect class="cls-3" x="1283" y="463.5" width="75" height="25"/>
    <rect class="cls-3" x="1583" y="463.5" width="75" height="25"/>
    <rect class="cls-3" x="1508" y="463.5" width="75" height="25"/>
    <rect class="cls-3" x="1433" y="463.5" width="75" height="25"/>
    <rect class="cls-3" x="1358" y="463.5" width="75" height="25"/>
    <rect class="cls-3" x="1283" y="513.5" width="75" height="25"/>
    <rect class="cls-3" x="1508" y="513.5" width="75" height="25"/>
    <rect class="cls-3" x="1433" y="513.5" width="75" height="25"/>
    <rect class="cls-3" x="1358" y="513.5" width="75" height="25"/>
    <rect class="cls-3" x="1283" y="563.5" width="75" height="25"/>
    <rect class="cls-3" x="1433" y="563.5" width="75" height="25"/>
    <rect class="cls-3" x="1358" y="563.5" width="75" height="25"/>
    <rect class="cls-3" x="1283" y="613.5" width="75" height="25"/>
    <rect class="cls-3" x="1358" y="613.5" width="75" height="25"/>
    <rect class="cls-3" x="1583" y="613.5" width="75" height="25"/>
    <rect class="cls-3" x="1658" y="613.5" width="75" height="25"/>
    <rect class="cls-3" x="1508" y="613.5" width="75" height="25"/>
    <rect class="cls-3" x="1433" y="613.5" width="75" height="25"/>
    <rect class="cls-3" x="1733" y="613.5" width="75" height="25"/>
    <rect class="cls-3" x="1808" y="613.5" width="75" height="25"/>
    <rect class="cls-3" x="1545.5" y="538.5" width="75" height="25"/>
    <rect class="cls-3" x="1508" y="563.5" width="75" height="25"/>
    <rect class="cls-3" x="1470.5" y="588.5" width="75" height="25"/>
    <rect class="cls-3" x="1545.5" y="388.5" width="75" height="25"/>
    <rect class="cls-3" x="1620.5" y="388.5" width="75" height="25"/>
    <rect class="cls-3" x="1695.5" y="388.5" width="75" height="25"/>
    <rect class="cls-3" x="1470.5" y="388.5" width="75" height="25"/>
    <rect class="cls-3" x="1395.5" y="388.5" width="75" height="25"/>
    <rect class="cls-3" x="1320.5" y="388.5" width="75" height="25"/>
    <rect class="cls-3" x="1245.5" y="388.5" width="75" height="25"/>
    <rect class="cls-3" x="1545.5" y="438.5" width="75" height="25"/>
    <rect class="cls-3" x="1470.5" y="438.5" width="75" height="25"/>
    <rect class="cls-3" x="1395.5" y="438.5" width="75" height="25"/>
    <rect class="cls-3" x="1320.5" y="438.5" width="75" height="25"/>
    <rect class="cls-3" x="1245.5" y="438.5" width="75" height="25"/>
    <rect class="cls-3" x="1545.5" y="488.5" width="75" height="25"/>
    <rect class="cls-3" x="1470.5" y="488.5" width="75" height="25"/>
    <rect class="cls-3" x="1395.5" y="488.5" width="75" height="25"/>
    <rect class="cls-3" x="1320.5" y="488.5" width="75" height="25"/>
    <rect class="cls-3" x="1245.5" y="488.5" width="75" height="25"/>
    <rect class="cls-3" x="1470.5" y="538.5" width="75" height="25"/>
    <rect class="cls-3" x="1395.5" y="538.5" width="75" height="25"/>
    <rect class="cls-3" x="1320.5" y="538.5" width="75" height="25"/>
    <rect class="cls-3" x="1245.5" y="538.5" width="75" height="25"/>
    <rect class="cls-3" x="1395.5" y="588.5" width="75" height="25"/>
    <rect class="cls-3" x="1320.5" y="588.5" width="75" height="25"/>
    <rect class="cls-3" x="1245.5" y="588.5" width="75" height="25"/>
    <rect class="cls-3" x="1883" y="363.5" width="37.5" height="25"/>
    <rect class="cls-3" x="1883" y="563.5" width="37.5" height="25"/>
    <rect class="cls-3" x="1883" y="613.5" width="37.5" height="25"/>
    <rect class="cls-3" x="1883" y="413.5" width="37.5" height="25"/>
    <rect class="cls-3" x="1808" y="463.5" width="75" height="25"/>
    <rect class="cls-3" x="1733" y="463.5" width="75" height="25"/>
    <rect class="cls-3" x="1883" y="463.5" width="37.5" height="25"/>
    <rect class="cls-3" x="1883" y="513.5" width="37.5" height="25"/>
    <rect class="cls-3" x="1170.5" y="88.5" width="75" height="25" transform="translate(2416 202) rotate(180)"/>
    <rect class="cls-3" x="1245.5" y="88.5" width="75" height="25" transform="translate(2566 202) rotate(180)"/>
    <rect class="cls-3" x="1133" y="113.5" width="75" height="25" transform="translate(2341 252) rotate(180)"/>
    <rect class="cls-3" x="1208" y="113.5" width="75" height="25" transform="translate(2491 252) rotate(180)"/>
    <rect class="cls-3" x="1283" y="113.5" width="75" height="25" transform="translate(2641 252) rotate(180)"/>
    <rect class="cls-3" x="1133" y="163.5" width="75" height="25" transform="translate(2341 352) rotate(180)"/>
    <rect class="cls-3" x="1208" y="163.5" width="75" height="25" transform="translate(2491 352) rotate(180)"/>
    <rect class="cls-3" x="1283" y="163.5" width="75" height="25" transform="translate(2641 352) rotate(180)"/>
    <rect class="cls-3" x="1170.5" y="188.5" width="75" height="25" transform="translate(2416 402) rotate(180)"/>
    <rect class="cls-3" x="1170.5" y="238.5" width="75" height="25" transform="translate(2416 502) rotate(180)"/>
    <rect class="cls-3" x="1245.5" y="188.5" width="75" height="25" transform="translate(2566 402) rotate(180)"/>
    <rect class="cls-3" x="1208" y="213.5" width="75" height="25" transform="translate(2491 452) rotate(180)"/>
    <rect class="cls-3" x="1133" y="213.5" width="75" height="25" transform="translate(2341 452) rotate(180)"/>
    <rect class="cls-3" x="1395.5" y="88.29" width="75" height="25" transform="translate(2866 201.58) rotate(180)"/>
    <rect class="cls-3" x="1133" y="263.5" width="75" height="25" transform="translate(2341 552) rotate(180)"/>
    <rect class="cls-3" x="1320.5" y="88.29" width="75" height="25" transform="translate(2716 201.58) rotate(180)"/>
    <rect class="cls-3" x="1358" y="113.5" width="75" height="25" transform="translate(2791 252) rotate(180)"/>
    <rect class="cls-3" x="1320.5" y="138.5" width="75" height="25" transform="translate(2716 302) rotate(180)"/>
    <rect class="cls-3" x="1170.5" y="138.5" width="75" height="25" transform="translate(2416 302) rotate(180)"/>
    <rect class="cls-3" x="1245.5" y="138.5" width="75" height="25" transform="translate(2566 302) rotate(180)"/>
    <rect class="cls-3" x="495.5" y="88.5" width="75" height="25" transform="translate(1066 202) rotate(180)"/>
    <rect class="cls-3" x="570.5" y="88.5" width="75" height="25" transform="translate(1216 202) rotate(180)"/>
    <rect class="cls-3" x="645.5" y="88.5" width="75" height="25" transform="translate(1366 202) rotate(180)"/>
    <rect class="cls-3" x="495.5" y="138.5" width="75" height="25" transform="translate(1066 302) rotate(180)"/>
    <rect class="cls-3" x="570.5" y="138.5" width="75" height="25" transform="translate(1216 302) rotate(180)"/>
    <rect class="cls-3" x="645.5" y="138.5" width="75" height="25" transform="translate(1366 302) rotate(180)"/>
    <rect class="cls-3" x="533" y="163.5" width="75" height="25" transform="translate(1141 352) rotate(180)"/>
    <rect class="cls-3" x="533" y="213.5" width="75" height="25" transform="translate(1141 452) rotate(180)"/>
    <rect class="cls-3" x="608" y="163.5" width="75" height="25" transform="translate(1291 352) rotate(180)"/>
    <rect class="cls-3" x="683" y="163.5" width="75" height="25" transform="translate(1441 352) rotate(180)"/>
    <rect class="cls-3" x="570.5" y="188.5" width="75" height="25" transform="translate(1216 402) rotate(180)"/>
    <rect class="cls-3" x="495.5" y="188.5" width="75" height="25" transform="translate(1066 402) rotate(180)"/>
    <rect class="cls-3" x="570.5" y="238.5" width="75" height="25" transform="translate(1216 502) rotate(180)"/>
    <rect class="cls-3" x="495.5" y="238.5" width="75" height="25" transform="translate(1066 502) rotate(180)"/>
    <rect class="cls-3" x="645.5" y="188.5" width="75" height="25" transform="translate(1366 402) rotate(180)"/>
    <rect class="cls-3" x="720.5" y="188.5" width="75" height="25" transform="translate(1516 402) rotate(180)"/>
    <rect class="cls-3" x="608" y="213.5" width="75" height="25" transform="translate(1291 452) rotate(180)"/>
    <rect class="cls-3" x="683" y="213.5" width="75" height="25" transform="translate(1441 452) rotate(180)"/>
    <rect class="cls-3" x="758" y="213.5" width="75" height="25" transform="translate(1591 452) rotate(180)"/>
    <rect class="cls-3" x="645.5" y="238.5" width="75" height="25" transform="translate(1366 502) rotate(180)"/>
    <rect class="cls-3" x="720.5" y="238.5" width="75" height="25" transform="translate(1516 502) rotate(180)"/>
    <rect class="cls-3" x="795.5" y="238.5" width="75" height="25" transform="translate(1666 502) rotate(180)"/>
    <rect class="cls-3" x="683" y="113.5" width="75" height="25" transform="translate(1441 252) rotate(180)"/>
    <rect class="cls-3" x="720.5" y="138.5" width="75" height="25" transform="translate(1516 302) rotate(180)"/>
    <rect class="cls-3" x="758" y="163.5" width="75" height="25" transform="translate(1591 352) rotate(180)"/>
    <rect class="cls-3" x="1058" y="113.5" width="75" height="25" transform="translate(2191 252) rotate(180)"/>
    <rect class="cls-3" x="758" y="113.5" width="75" height="25" transform="translate(1591 252) rotate(180)"/>
    <rect class="cls-3" x="833" y="113.5" width="75" height="25" transform="translate(1741 252) rotate(180)"/>
    <rect class="cls-3" x="908" y="113.5" width="75" height="25" transform="translate(1891 252) rotate(180)"/>
    <rect class="cls-3" x="983" y="113.5" width="75" height="25" transform="translate(2041 252) rotate(180)"/>
    <rect class="cls-3" x="1058" y="163.5" width="75" height="25" transform="translate(2191 352) rotate(180)"/>
    <rect class="cls-3" x="833" y="163.5" width="75" height="25" transform="translate(1741 352) rotate(180)"/>
    <rect class="cls-3" x="908" y="163.5" width="75" height="25" transform="translate(1891 352) rotate(180)"/>
    <rect class="cls-3" x="983" y="163.5" width="75" height="25" transform="translate(2041 352) rotate(180)"/>
    <rect class="cls-3" x="1058" y="213.5" width="75" height="25" transform="translate(2191 452) rotate(180)"/>
    <rect class="cls-3" x="908" y="213.5" width="75" height="25" transform="translate(1891 452) rotate(180)"/>
    <rect class="cls-3" x="983" y="213.5" width="75" height="25" transform="translate(2041 452) rotate(180)"/>
    <rect class="cls-3" x="1058" y="263.5" width="75" height="25" transform="translate(2191 552) rotate(180)"/>
    <rect class="cls-3" x="983" y="263.5" width="75" height="25" transform="translate(2041 552) rotate(180)"/>
    <rect class="cls-3" x="758" y="263.5" width="75" height="25" transform="translate(1591 552) rotate(180)"/>
    <rect class="cls-3" x="683" y="263.5" width="75" height="25" transform="translate(1441 552) rotate(180)"/>
    <rect class="cls-3" x="833" y="263.5" width="75" height="25" transform="translate(1741 552) rotate(180)"/>
    <rect class="cls-3" x="908" y="263.5" width="75" height="25" transform="translate(1891 552) rotate(180)"/>
    <rect class="cls-3" x="608" y="263.5" width="75" height="25" transform="translate(1291 552) rotate(180)"/>
    <rect class="cls-3" x="533" y="263.5" width="75" height="25" transform="translate(1141 552) rotate(180)"/>
    <rect class="cls-3" x="795.5" y="188.5" width="75" height="25" transform="translate(1666 402) rotate(180)"/>
    <rect class="cls-3" x="833" y="213.5" width="75" height="25" transform="translate(1741 452) rotate(180)"/>
    <rect class="cls-3" x="870.5" y="238.5" width="75" height="25" transform="translate(1816 502) rotate(180)"/>
    <rect class="cls-3" x="795.5" y="88.5" width="75" height="25" transform="translate(1666 202) rotate(180)"/>
    <rect class="cls-3" x="720.5" y="88.5" width="75" height="25" transform="translate(1516 202) rotate(180)"/>
    <rect class="cls-3" x="870.5" y="88.5" width="75" height="25" transform="translate(1816 202) rotate(180)"/>
    <rect class="cls-3" x="945.5" y="88.5" width="75" height="25" transform="translate(1966 202) rotate(180)"/>
    <rect class="cls-3" x="1020.5" y="88.5" width="75" height="25" transform="translate(2116 202) rotate(180)"/>
    <rect class="cls-3" x="1095.5" y="88.5" width="75" height="25" transform="translate(2266 202) rotate(180)"/>
    <rect class="cls-3" x="795.5" y="138.5" width="75" height="25" transform="translate(1666 302) rotate(180)"/>
    <rect class="cls-3" x="870.5" y="138.5" width="75" height="25" transform="translate(1816 302) rotate(180)"/>
    <rect class="cls-3" x="945.5" y="138.5" width="75" height="25" transform="translate(1966 302) rotate(180)"/>
    <rect class="cls-3" x="1020.5" y="138.5" width="75" height="25" transform="translate(2116 302) rotate(180)"/>
    <rect class="cls-3" x="1095.5" y="138.5" width="75" height="25" transform="translate(2266 302) rotate(180)"/>
    <rect class="cls-3" x="870.5" y="188.5" width="75" height="25" transform="translate(1816 402) rotate(180)"/>
    <rect class="cls-3" x="945.5" y="188.5" width="75" height="25" transform="translate(1966 402) rotate(180)"/>
    <rect class="cls-3" x="1020.5" y="188.5" width="75" height="25" transform="translate(2116 402) rotate(180)"/>
    <rect class="cls-3" x="1095.5" y="188.5" width="75" height="25" transform="translate(2266 402) rotate(180)"/>
    <rect class="cls-3" x="945.5" y="238.5" width="75" height="25" transform="translate(1966 502) rotate(180)"/>
    <rect class="cls-3" x="1020.5" y="238.5" width="75" height="25" transform="translate(2116 502) rotate(180)"/>
    <rect class="cls-3" x="1095.5" y="238.5" width="75" height="25" transform="translate(2266 502) rotate(180)"/>
    <rect class="cls-3" x="570.5" y="288.5" width="75" height="25" transform="translate(1216 602) rotate(180)"/>
    <rect class="cls-3" x="495.5" y="288.5" width="75" height="25" transform="translate(1066 602) rotate(180)"/>
    <rect class="cls-3" x="645.5" y="288.5" width="75" height="25" transform="translate(1366 602) rotate(180)"/>
    <rect class="cls-3" x="720.5" y="288.5" width="75" height="25" transform="translate(1516 602) rotate(180)"/>
    <rect class="cls-3" x="795.5" y="288.5" width="75" height="25" transform="translate(1666 602) rotate(180)"/>
    <rect class="cls-3" x="870.5" y="288.5" width="75" height="25" transform="translate(1816 602) rotate(180)"/>
    <rect class="cls-3" x="945.5" y="288.5" width="75" height="25" transform="translate(1966 602) rotate(180)"/>
    <rect class="cls-3" x="1020.5" y="288.5" width="75" height="25" transform="translate(2116 602) rotate(180)"/>
    <rect class="cls-3" x="570.5" y="338.5" width="75" height="25" transform="translate(1216 702) rotate(180)"/>
    <rect class="cls-3" x="495.5" y="338.5" width="75" height="25" transform="translate(1066 702) rotate(180)"/>
    <rect class="cls-3" x="645.5" y="338.5" width="75" height="25" transform="translate(1366 702) rotate(180)"/>
    <rect class="cls-3" x="720.5" y="338.5" width="75" height="25" transform="translate(1516 702) rotate(180)"/>
    <rect class="cls-3" x="570.5" y="388.5" width="75" height="25" transform="translate(1216 802) rotate(180)"/>
    <rect class="cls-3" x="495.5" y="388.5" width="75" height="25" transform="translate(1066 802) rotate(180)"/>
    <rect class="cls-3" x="645.5" y="388.5" width="75" height="25" transform="translate(1366 802) rotate(180)"/>
    <rect class="cls-3" x="570.5" y="438.5" width="75" height="25" transform="translate(1216 902) rotate(180)"/>
    <rect class="cls-3" x="495.5" y="438.5" width="75" height="25" transform="translate(1066 902) rotate(180)"/>
    <rect class="cls-3" x="570.5" y="488.5" width="75" height="25" transform="translate(1216 1002) rotate(180)"/>
    <rect class="cls-3" x="495.5" y="488.5" width="75" height="25" transform="translate(1066 1002) rotate(180)"/>
    <rect class="cls-3" x="495.5" y="538.5" width="75" height="25" transform="translate(1066 1102) rotate(180)"/>
    <rect class="cls-3" x="645.5" y="438.5" width="75" height="25" transform="translate(1366 902) rotate(180)"/>
    <rect class="cls-3" x="720.5" y="388.5" width="75" height="25" transform="translate(1516 802) rotate(180)"/>
    <rect class="cls-3" x="795.5" y="338.5" width="75" height="25" transform="translate(1666 702) rotate(180)"/>
    <rect class="cls-3" x="870.5" y="338.5" width="75" height="25" transform="translate(1816 702) rotate(180)"/>
    <rect class="cls-3" x="945.5" y="338.5" width="75" height="25" transform="translate(1966 702) rotate(180)"/>
    <rect class="cls-3" x="1020.5" y="338.5" width="75" height="25" transform="translate(2116 702) rotate(180)"/>
    <rect class="cls-3" x="1095.5" y="288.5" width="75" height="25" transform="translate(2266 602) rotate(180)"/>
    <rect class="cls-3" x="495.5" y="213.5" width="37.5" height="25" transform="translate(1028.5 452) rotate(180)"/>
    <rect class="cls-3" x="495.5" y="263.5" width="37.5" height="25" transform="translate(1028.5 552) rotate(180)"/>
    <rect class="cls-3" x="1058" y="313.5" width="75" height="25" transform="translate(2191 652) rotate(180)"/>
    <rect class="cls-3" x="983" y="313.5" width="75" height="25" transform="translate(2041 652) rotate(180)"/>
    <rect class="cls-3" x="758" y="313.5" width="75" height="25" transform="translate(1591 652) rotate(180)"/>
    <rect class="cls-3" x="683" y="313.5" width="75" height="25" transform="translate(1441 652) rotate(180)"/>
    <rect class="cls-3" x="833" y="313.5" width="75" height="25" transform="translate(1741 652) rotate(180)"/>
    <rect class="cls-3" x="908" y="313.5" width="75" height="25" transform="translate(1891 652) rotate(180)"/>
    <rect class="cls-3" x="608" y="313.5" width="75" height="25" transform="translate(1291 652) rotate(180)"/>
    <rect class="cls-3" x="533" y="313.5" width="75" height="25" transform="translate(1141 652) rotate(180)"/>
    <rect class="cls-3" x="495.5" y="313.5" width="37.5" height="25" transform="translate(1028.5 652) rotate(180)"/>
    <rect class="cls-3" x="758" y="363.5" width="75" height="25" transform="translate(1591 752) rotate(180)"/>
    <rect class="cls-3" x="683" y="363.5" width="75" height="25" transform="translate(1441 752) rotate(180)"/>
    <rect class="cls-3" x="608" y="363.5" width="75" height="25" transform="translate(1291 752) rotate(180)"/>
    <rect class="cls-3" x="533" y="363.5" width="75" height="25" transform="translate(1141 752) rotate(180)"/>
    <rect class="cls-3" x="495.5" y="363.5" width="37.5" height="25" transform="translate(1028.5 752) rotate(180)"/>
    <rect class="cls-3" x="683" y="413.5" width="75" height="25" transform="translate(1441 852) rotate(180)"/>
    <rect class="cls-3" x="608" y="413.5" width="75" height="25" transform="translate(1291 852) rotate(180)"/>
    <rect class="cls-3" x="533" y="413.5" width="75" height="25" transform="translate(1141 852) rotate(180)"/>
    <rect class="cls-3" x="495.5" y="413.5" width="37.5" height="25" transform="translate(1028.5 852) rotate(180)"/>
    <rect class="cls-3" x="608" y="463.5" width="75" height="25" transform="translate(1291 952) rotate(180)"/>
    <rect class="cls-3" x="533" y="463.5" width="75" height="25" transform="translate(1141 952) rotate(180)"/>
    <rect class="cls-3" x="495.5" y="463.5" width="37.5" height="25" transform="translate(1028.5 952) rotate(180)"/>
    <rect class="cls-3" x="533" y="513.5" width="75" height="25" transform="translate(1141 1052) rotate(180)"/>
    <rect class="cls-3" x="495.5" y="513.5" width="37.5" height="25" transform="translate(1028.5 1052) rotate(180)"/>
    <rect class="cls-3" x="495.5" y="563.5" width="37.5" height="25" transform="translate(1028.5 1152) rotate(180)"/>
    <rect class="cls-3" x="533" y="113.5" width="75" height="25" transform="translate(1141 252) rotate(180)"/>
    <rect class="cls-3" x="608" y="113.5" width="75" height="25" transform="translate(1291 252) rotate(180)"/>
    <rect class="cls-3" x="495.5" y="113.5" width="37.5" height="25" transform="translate(1028.5 252) rotate(180)"/>
    <rect class="cls-3" x="495.5" y="163.5" width="37.5" height="25" transform="translate(1028.5 352) rotate(180)"/>
    <rect class="cls-9" x="458" y="88.5" width="37.5" height="525"/>
    <rect class="cls-20" x=".5" y="88.5" width="37.5" height="550"/>
    <rect class="cls-6" x="38" y="88.5" width="420" height="193.73"/>
    <polyline class="cls-35" points="1283 363.5 1283 288.5 1245.5 288.5 1245.5 338.5 1283 338.5 1695.5 63.5 1695.5 13.5 1695.5 63.5 1695.5 88.5 1695.5 63.5 1733 63.5 1733 13.5 1695.5 13.5 1283 288.5"/>
    <polyline class="cls-35" points="645.5 639.03 645.5 564.03 608 564.03 608 614.03 645.5 614.03 1058 339.03 1058 289.03 1058 339.03 1058 364.03 1058 339.03 1095.5 339.03 1095.5 289.03 1058 289.03 645.5 564.03"/>
    <rect class="cls-15" x="545.5" y="1" width="150" height="87.5"/>
    <rect class="cls-15" x="395.5" y="1" width="150" height="87.5"/>
    <rect class="cls-15" x="245.5" y="1" width="150" height="87.5"/>
    <rect class="cls-15" x="95.5" y="1" width="150" height="87.5"/>
    <polyline class="cls-15" points=".5 88.5 95.5 88.5 95.5 1 .5 1"/>
    <rect class="cls-15" x="695.5" y="1" width="150" height="87.5"/>
    <rect class="cls-15" x="845.5" y="1" width="150" height="87.5"/>
    <rect class="cls-15" x="995.5" y="1" width="150" height="87.5"/>
    <rect class="cls-15" x="1145.5" y="1" width="150" height="87.5"/>
    <rect class="cls-15" x="1295.5" y="1" width="150" height="87.5"/>
    <rect class="cls-13" x="1445.5" y="1" width="25" height="87.5"/>
    <polygon class="cls-3" points="95.5 44.75 170.5 1 245.5 44.75 170.5 88.5 95.5 44.75"/>
    <polyline class="cls-3" points=".5 12.67 20.5 1 95.5 44.75 20.5 88.5 .5 76.83"/>
    <polygon class="cls-3" points="245.5 44.75 320.5 1 395.5 44.75 320.5 88.5 245.5 44.75"/>
    <polygon class="cls-3" points="395.5 44.75 470.5 1 545.5 44.75 470.5 88.5 395.5 44.75"/>
    <polygon class="cls-3" points="545.5 44.75 620.5 1 695.5 44.75 620.5 88.5 545.5 44.75"/>
    <polygon class="cls-3" points="695.5 44.75 770.5 1 845.5 44.75 770.5 88.5 695.5 44.75"/>
    <polygon class="cls-3" points="845.5 44.75 920.5 1 995.5 44.75 920.5 88.5 845.5 44.75"/>
    <polygon class="cls-3" points="995.5 44.75 1070.5 1 1145.5 44.75 1070.5 88.5 995.5 44.75"/>
    <polygon class="cls-3" points="1145.5 44.75 1220.5 1 1295.5 44.75 1220.5 88.5 1145.5 44.75"/>
    <polygon class="cls-3" points="1295.5 44.75 1370.5 1 1445.5 44.75 1370.5 88.5 1295.5 44.75"/>
    <polygon class="cls-3" points="20.5 44.75 95.5 1 170.5 44.75 95.5 88.5 20.5 44.75"/>
    <polyline class="cls-3" points=".5 33.08 20.5 44.75 .5 56.42"/>
    <polygon class="cls-3" points="170.5 44.75 245.5 1 320.5 44.75 245.5 88.5 170.5 44.75"/>
    <polygon class="cls-3" points="320.5 44.75 395.5 1 470.5 44.75 395.5 88.5 320.5 44.75"/>
    <polygon class="cls-3" points="470.5 44.75 545.5 1 620.5 44.75 545.5 88.5 470.5 44.75"/>
    <polygon class="cls-3" points="620.5 44.75 695.5 1 770.5 44.75 695.5 88.5 620.5 44.75"/>
    <polygon class="cls-3" points="770.5 44.75 845.5 1 920.5 44.75 845.5 88.5 770.5 44.75"/>
    <polygon class="cls-3" points="920.5 44.75 995.5 1 1070.5 44.75 995.5 88.5 920.5 44.75"/>
    <polygon class="cls-3" points="1070.5 44.75 1145.5 1 1220.5 44.75 1145.5 88.5 1070.5 44.75"/>
    <polygon class="cls-3" points="1220.5 44.75 1295.5 1 1370.5 44.75 1295.5 88.5 1220.5 44.75"/>
    <polyline class="cls-3" points="1445.5 1 1370.5 44.75 1445.5 88.5"/>
    <path class="cls-5" d="M305.5,488.5h90c2.76,0,5,2.24,5,5v145h-100v-145c0-2.76,2.24-5,5-5Z"/>
    <rect class="cls-34" x="350.5" y="501" width="10.75" height="125"/>
    <rect class="cls-7" x="312.75" y="501" width="8.5" height="125" transform="translate(634 1127) rotate(180)"/>
    <rect class="cls-19" x="300.5" y="501" width="4.5" height="125" transform="translate(605.5 1127) rotate(180)"/>
    <rect class="cls-23" x="330.5" y="501" width="10" height="125" transform="translate(671 1127) rotate(180)"/>
    <rect class="cls-22" x="371.25" y="501" width="9.25" height="125"/>
    <rect class="cls-33" x="389" y="501" width="7.75" height="125"/>
    <line class="cls-12" x1=".5" y1="638.5" x2="1920.5" y2="638.5"/>
    <rect class="cls-3" x="1620.5" y="438.5" width="75" height="25"/>
  </g>
</svg>